TITLE ""
FILE "Disc6Track20.mp3" MP3
  TRACK 01 AUDIO
    TITLE "Disc6Track20_01"
    INDEX 01 00:00:00
  TRACK 02 AUDIO
    TITLE "Disc6Track20_02"
    INDEX 01 00:01:08
  TRACK 03 AUDIO
    TITLE "Disc6Track20_03"
    INDEX 01 00:05:10
  TRACK 04 AUDIO
    TITLE "Disc6Track20_04"
    INDEX 01 00:06:31
  TRACK 05 AUDIO
    TITLE "Disc6Track20_05"
    INDEX 01 00:09:46
  TRACK 06 AUDIO
    TITLE "Disc6Track20_06"
    INDEX 01 00:10:03
  TRACK 07 AUDIO
    TITLE "Disc6Track20_07"
    INDEX 01 00:11:08
  TRACK 08 AUDIO
    TITLE "Disc6Track20_08"
    INDEX 01 00:17:44
  TRACK 09 AUDIO
    TITLE "Disc6Track20_09"
    INDEX 01 00:18:45
  TRACK 10 AUDIO
    TITLE "Disc6Track20_10"
    INDEX 01 00:24:68
  TRACK 11 AUDIO
    TITLE "Disc6Track20_11"
    INDEX 01 00:25:24
  TRACK 12 AUDIO
    TITLE "Disc6Track20_12"
    INDEX 01 00:26:35
  TRACK 13 AUDIO
    TITLE "Disc6Track20_13"
    INDEX 01 00:28:69
  TRACK 14 AUDIO
    TITLE "Disc6Track20_14"
    INDEX 01 00:30:04
  TRACK 15 AUDIO
    TITLE "Disc6Track20_15"
    INDEX 01 00:32:53
  TRACK 16 AUDIO
    TITLE "Disc6Track20_16"
    INDEX 01 00:33:10
  TRACK 17 AUDIO
    TITLE "Disc6Track20_17"
    INDEX 01 00:34:39
  TRACK 18 AUDIO
    TITLE "Disc6Track20_18"
    INDEX 01 00:37:06
  TRACK 19 AUDIO
    TITLE "Disc6Track20_19"
    INDEX 01 00:38:36
  TRACK 20 AUDIO
    TITLE "Disc6Track20_20"
    INDEX 01 00:40:73
  TRACK 21 AUDIO
    TITLE "Disc6Track20_21"
    INDEX 01 00:41:27
  TRACK 22 AUDIO
    TITLE "Disc6Track20_22"
    INDEX 01 00:42:42
  TRACK 23 AUDIO
    TITLE "Disc6Track20_23"
    INDEX 01 00:46:16
  TRACK 24 AUDIO
    TITLE "Disc6Track20_24"
    INDEX 01 00:47:29
  TRACK 25 AUDIO
    TITLE "Disc6Track20_25"
    INDEX 01 00:51:63
  TRACK 26 AUDIO
    TITLE "Disc6Track20_26"
    INDEX 01 00:52:15
  TRACK 27 AUDIO
    TITLE "Disc6Track20_27"
    INDEX 01 00:53:18
  TRACK 28 AUDIO
    TITLE "Disc6Track20_28"
    INDEX 01 00:57:20
  TRACK 29 AUDIO
    TITLE "Disc6Track20_29"
    INDEX 01 00:58:21
  TRACK 30 AUDIO
    TITLE "Disc6Track20_30"
    INDEX 01 01:03:21
  TRACK 31 AUDIO
    TITLE "Disc6Track20_31"
    INDEX 01 01:03:52
  TRACK 32 AUDIO
    TITLE "Disc6Track20_32"
    INDEX 01 01:04:59
  TRACK 33 AUDIO
    TITLE "Disc6Track20_33"
    INDEX 01 01:09:37
  TRACK 34 AUDIO
    TITLE "Disc6Track20_34"
    INDEX 01 01:10:44
  TRACK 35 AUDIO
    TITLE "Disc6Track20_35"
    INDEX 01 01:14:66
  TRACK 36 AUDIO
    TITLE "Disc6Track20_36"
    INDEX 01 01:15:22
  TRACK 37 AUDIO
    TITLE "Disc6Track20_37"
    INDEX 01 01:16:41
  TRACK 38 AUDIO
    TITLE "Disc6Track20_38"
    INDEX 01 01:20:07
  TRACK 39 AUDIO
    TITLE "Disc6Track20_39"
    INDEX 01 01:21:26
  TRACK 40 AUDIO
    TITLE "Disc6Track20_40"
    INDEX 01 01:23:68
  TRACK 41 AUDIO
    TITLE "Disc6Track20_41"
    INDEX 01 01:24:23
  TRACK 42 AUDIO
    TITLE "Disc6Track20_42"
    INDEX 01 01:25:36
  TRACK 43 AUDIO
    TITLE "Disc6Track20_43"
    INDEX 01 01:28:13
  TRACK 44 AUDIO
    TITLE "Disc6Track20_44"
    INDEX 01 01:29:26
  TRACK 45 AUDIO
    TITLE "Disc6Track20_45"
    INDEX 01 01:31:52
  TRACK 46 AUDIO
    TITLE "Disc6Track20_46"
    INDEX 01 01:32:07
  TRACK 47 AUDIO
    TITLE "Disc6Track20_47"
    INDEX 01 01:33:26
  TRACK 48 AUDIO
    TITLE "Disc6Track20_48"
    INDEX 01 01:36:08
  TRACK 49 AUDIO
    TITLE "Disc6Track20_49"
    INDEX 01 01:37:27
  TRACK 50 AUDIO
    TITLE "Disc6Track20_50"
    INDEX 01 01:39:20
  TRACK 51 AUDIO
    TITLE "Disc6Track20_51"
    INDEX 01 01:39:58
  TRACK 52 AUDIO
    TITLE "Disc6Track20_52"
    INDEX 01 01:40:73
  TRACK 53 AUDIO
    TITLE "Disc6Track20_53"
    INDEX 01 01:43:22
  TRACK 54 AUDIO
    TITLE "Disc6Track20_54"
    INDEX 01 01:44:37
  TRACK 55 AUDIO
    TITLE "Disc6Track20_55"
    INDEX 01 01:46:69
  TRACK 56 AUDIO
    TITLE "Disc6Track20_56"
    INDEX 01 01:47:24
  TRACK 57 AUDIO
    TITLE "Disc6Track20_57"
    INDEX 01 01:48:33
  TRACK 58 AUDIO
    TITLE "Disc6Track20_58"
    INDEX 01 01:50:18
  TRACK 59 AUDIO
    TITLE "Disc6Track20_59"
    INDEX 01 01:51:27
  TRACK 60 AUDIO
    TITLE "Disc6Track20_60"
    INDEX 01 01:54:18
  TRACK 61 AUDIO
    TITLE "Disc6Track20_61"
    INDEX 01 01:54:47
  TRACK 62 AUDIO
    TITLE "Disc6Track20_62"
    INDEX 01 01:55:68
  TRACK 63 AUDIO
    TITLE "Disc6Track20_63"
    INDEX 01 02:01:49
  TRACK 64 AUDIO
    TITLE "Disc6Track20_64"
    INDEX 01 02:02:68
  TRACK 65 AUDIO
    TITLE "Disc6Track20_65"
    INDEX 01 02:06:33
  TRACK 66 AUDIO
    TITLE "Disc6Track20_66"
    INDEX 01 02:06:64
  TRACK 67 AUDIO
    TITLE "Disc6Track20_67"
    INDEX 01 02:08:02
  TRACK 68 AUDIO
    TITLE "Disc6Track20_68"
    INDEX 01 02:14:58
  TRACK 69 AUDIO
    TITLE "Disc6Track20_69"
    INDEX 01 02:15:69
  TRACK 70 AUDIO
    TITLE "Disc6Track20_70"
    INDEX 01 02:19:53
  TRACK 71 AUDIO
    TITLE "Disc6Track20_71"
    INDEX 01 02:20:08
  TRACK 72 AUDIO
    TITLE "Disc6Track20_72"
    INDEX 01 02:21:21
  TRACK 73 AUDIO
    TITLE "Disc6Track20_73"
    INDEX 01 02:22:52
  TRACK 74 AUDIO
    TITLE "Disc6Track20_74"
    INDEX 01 02:23:65
  TRACK 75 AUDIO
    TITLE "Disc6Track20_75"
    INDEX 01 02:27:15
